<svg width="68" height="68" viewBox="0 0 68 68" fill="none" xmlns="http://www.w3.org/2000/svg">
<rect width="67.5" height="67.5" rx="8" fill="#FFFBFF"/>
<path d="M44.4597 52.5C43.9278 52.5 43.4926 52.0648 43.4926 51.5329V48.6316H40.5913C40.0593 48.6316 39.6241 48.1964 39.6241 47.6645C39.6241 47.1326 40.0593 46.6974 40.5913 46.6974H43.4926V43.7961C43.4926 43.2642 43.9278 42.829 44.4597 42.829C44.9916 42.829 45.4268 43.2642 45.4268 43.7961V46.6974H48.3281C48.86 46.6974 49.2952 47.1326 49.2952 47.6645C49.2952 48.1964 48.86 48.6316 48.3281 48.6316H45.4268V51.5329C45.4268 52.0648 44.9916 52.5 44.4597 52.5Z" fill="#040035"/>
<path d="M32.8555 52.5H19.316C17.7203 52.5 16.4147 51.1944 16.4147 49.5987V18.6513C16.4147 17.0556 17.7203 15.75 19.316 15.75H36.7239C36.9657 15.75 37.2074 15.8467 37.4009 16.0401L45.1377 23.777C45.3311 23.9704 45.4278 24.2122 45.4278 24.4539V36.0592C45.4278 36.5911 44.9926 37.0263 44.4607 37.0263C43.9288 37.0263 43.4936 36.5911 43.4936 36.0592V24.8408L36.337 17.6842H19.316C18.7841 17.6842 18.3489 18.1194 18.3489 18.6513V49.5987C18.3489 50.1306 18.7841 50.5658 19.316 50.5658H32.8555C33.3874 50.5658 33.8226 51.001 33.8226 51.5329C33.8226 52.0648 33.3874 52.5 32.8555 52.5Z" fill="#040035"/>
</svg>
