<svg width="68" height="68" viewBox="0 0 68 68" fill="none" xmlns="http://www.w3.org/2000/svg">
<rect width="67.5" height="67.5" rx="8" fill="#FFFBFF"/>
<path d="M26.1633 51.6154C26.6305 52.0826 27.4299 51.8827 27.6216 51.2505C27.6761 51.0703 27.6595 51.4976 27.6595 45.4661C27.6595 44.2743 26.7681 43.2679 25.5859 43.1251C25.1041 43.0675 24.6688 43.4096 24.6108 43.8901C24.5529 44.3706 24.8953 44.8073 25.3758 44.8652C25.6785 44.9017 25.9067 45.16 25.9067 45.466V48.8798L20.6483 43.6214V17.3374C20.6483 16.8082 21.0787 16.3778 21.6078 16.3778H45.433C45.9622 16.3778 46.3926 16.8082 46.3926 17.3374V49.1597C46.3926 49.6888 45.9622 50.1192 45.433 50.1192H31.4549C30.9709 50.1192 30.5785 50.5117 30.5785 50.9956C30.5785 51.4796 30.9709 51.8721 31.4549 51.8721H45.433C46.9286 51.8721 48.1454 50.6553 48.1454 49.1597V17.3374C48.1454 15.8418 46.9287 14.625 45.433 14.625H21.6077C20.1122 14.625 18.8954 15.8418 18.8954 17.3374V43.9844C18.8954 44.2169 18.9877 44.4398 19.1521 44.6042L26.1633 51.6154Z" fill="#040035"/>
<path d="M33.8116 26.1449L38.4674 21.4891C38.8097 21.1468 38.8097 20.592 38.4674 20.2497C38.1251 19.9075 37.5703 19.9075 37.228 20.2497L33.1918 24.2859L31.6753 22.7694C31.333 22.4271 30.7782 22.4271 30.4359 22.7694C30.0936 23.1116 30.0936 23.6665 30.4359 24.0087L32.5721 26.1449C32.9144 26.4873 33.4692 26.4872 33.8116 26.1449Z" fill="#040035"/>
<path d="M25.4689 31.2768C25.4689 31.7608 25.8613 32.1532 26.3453 32.1532H40.5868C41.0708 32.1532 41.4632 31.7608 41.4632 31.2768C41.4632 30.7928 41.0708 30.4004 40.5868 30.4004H26.3453C25.8613 30.4004 25.4689 30.7927 25.4689 31.2768Z" fill="#040035"/>
<path d="M26.3453 38.7262H40.5868C41.0708 38.7262 41.4632 38.3338 41.4632 37.8498C41.4632 37.3658 41.0708 36.9734 40.5868 36.9734H26.3453C25.8613 36.9734 25.4689 37.3658 25.4689 37.8498C25.4689 38.3338 25.8613 38.7262 26.3453 38.7262Z" fill="#040035"/>
<path d="M40.5856 43.5464H32.2598C31.7758 43.5464 31.3834 43.9388 31.3834 44.4228C31.3834 44.9068 31.7758 45.2992 32.2598 45.2992H40.5856C41.0696 45.2992 41.462 44.9068 41.462 44.4228C41.462 43.9388 41.0696 43.5464 40.5856 43.5464Z" fill="#040035"/>
</svg>
