<svg width="58" height="58" viewBox="0 0 58 58" fill="none" xmlns="http://www.w3.org/2000/svg">
<path d="M20 19C20.2652 19 20.5196 18.8946 20.7071 18.7071C20.8946 18.5196 21 18.2652 21 18C21 17.7348 20.8946 17.4804 20.7071 17.2929C20.5196 17.1054 20.2652 17 20 17C19.2044 17 18.4413 17.3161 17.8787 17.8787C17.3161 18.4413 17 19.2044 17 20V38C17 38.7956 17.3161 39.5587 17.8787 40.1213C18.4413 40.6839 19.2044 41 20 41H38C38.7956 41 39.5587 40.6839 40.1213 40.1213C40.6839 39.5587 41 38.7956 41 38V20C41 19.2044 40.6839 18.4413 40.1213 17.8787C39.5587 17.3161 38.7956 17 38 17H26C25.7348 17 25.4804 17.1054 25.2929 17.2929C25.1054 17.4804 25 17.7348 25 18C25 18.2652 25.1054 18.5196 25.2929 18.7071C25.4804 18.8946 25.7348 19 26 19H38C38.2652 19 38.5196 19.1054 38.7071 19.2929C38.8946 19.4804 39 19.7348 39 20V38C39 38.2652 38.8946 38.5196 38.7071 38.7071C38.5196 38.8946 38.2652 39 38 39H20C19.7348 39 19.4804 38.8946 19.2929 38.7071C19.1054 38.5196 19 38.2652 19 38V20C19 19.7348 19.1054 19.4804 19.2929 19.2929C19.4804 19.1054 19.7348 19 20 19Z" fill="white"/>
<path d="M57 18C57.2652 18 57.5196 17.8946 57.7071 17.7071C57.8946 17.5196 58 17.2652 58 17C58 16.7348 57.8946 16.4804 57.7071 16.2929C57.5196 16.1054 57.2652 16 57 16H49C49 14.1435 48.2625 12.363 46.9497 11.0503C45.637 9.7375 43.8565 9 42 9V1C42 0.734784 41.8946 0.48043 41.7071 0.292893C41.5196 0.105357 41.2652 0 41 0C40.7348 0 40.4804 0.105357 40.2929 0.292893C40.1054 0.48043 40 0.734784 40 1V9H34V1C34 0.734784 33.8946 0.48043 33.7071 0.292893C33.5196 0.105357 33.2652 0 33 0C32.7348 0 32.4804 0.105357 32.2929 0.292893C32.1054 0.48043 32 0.734784 32 1V9H26V1C26 0.734784 25.8946 0.48043 25.7071 0.292893C25.5196 0.105357 25.2652 0 25 0C24.7348 0 24.4804 0.105357 24.2929 0.292893C24.1054 0.48043 24 0.734784 24 1V9H18V1C18 0.734784 17.8946 0.48043 17.7071 0.292893C17.5196 0.105357 17.2652 0 17 0C16.7348 0 16.4804 0.105357 16.2929 0.292893C16.1054 0.48043 16 0.734784 16 1V9C14.1435 9 12.363 9.7375 11.0503 11.0503C9.7375 12.363 9 14.1435 9 16H1C0.734784 16 0.48043 16.1054 0.292893 16.2929C0.105357 16.4804 0 16.7348 0 17C0 17.2652 0.105357 17.5196 0.292893 17.7071C0.48043 17.8946 0.734784 18 1 18H10C10.2652 18 10.5196 17.8946 10.7071 17.7071C10.8946 17.5196 11 17.2652 11 17V16C11 14.6739 11.5268 13.4021 12.4645 12.4645C13.4021 11.5268 14.6739 11 16 11H42C43.3261 11 44.5979 11.5268 45.5355 12.4645C46.4732 13.4021 47 14.6739 47 16V42C47 43.3261 46.4732 44.5979 45.5355 45.5355C44.5979 46.4732 43.3261 47 42 47H41C40.7348 47 40.4804 47.1054 40.2929 47.2929C40.1054 47.4804 40 47.7348 40 48V57C40 57.2652 40.1054 57.5196 40.2929 57.7071C40.4804 57.8946 40.7348 58 41 58C41.2652 58 41.5196 57.8946 41.7071 57.7071C41.8946 57.5196 42 57.2652 42 57V49C43.8565 49 45.637 48.2625 46.9497 46.9497C48.2625 45.637 49 43.8565 49 42H57C57.2652 42 57.5196 41.8946 57.7071 41.7071C57.8946 41.5196 58 41.2652 58 41C58 40.7348 57.8946 40.4804 57.7071 40.2929C57.5196 40.1054 57.2652 40 57 40H49V34H57C57.2652 34 57.5196 33.8946 57.7071 33.7071C57.8946 33.5196 58 33.2652 58 33C58 32.7348 57.8946 32.4804 57.7071 32.2929C57.5196 32.1054 57.2652 32 57 32H49V26H57C57.2652 26 57.5196 25.8946 57.7071 25.7071C57.8946 25.5196 58 25.2652 58 25C58 24.7348 57.8946 24.4804 57.7071 24.2929C57.5196 24.1054 57.2652 24 57 24H49V18H57Z" fill="white"/>
<path d="M1 40C0.734784 40 0.48043 40.1054 0.292893 40.2929C0.105357 40.4804 0 40.7348 0 41C0 41.2652 0.105357 41.5196 0.292893 41.7071C0.48043 41.8946 0.734784 42 1 42H9C9 43.8565 9.7375 45.637 11.0503 46.9497C12.363 48.2625 14.1435 49 16 49V57C16 57.2652 16.1054 57.5196 16.2929 57.7071C16.4804 57.8946 16.7348 58 17 58C17.2652 58 17.5196 57.8946 17.7071 57.7071C17.8946 57.5196 18 57.2652 18 57V49H24V57C24 57.2652 24.1054 57.5196 24.2929 57.7071C24.4804 57.8946 24.7348 58 25 58C25.2652 58 25.5196 57.8946 25.7071 57.7071C25.8946 57.5196 26 57.2652 26 57V49H32V57C32 57.2652 32.1054 57.5196 32.2929 57.7071C32.4804 57.8946 32.7348 58 33 58C33.2652 58 33.5196 57.8946 33.7071 57.7071C33.8946 57.5196 34 57.2652 34 57V49H35C35.2652 49 35.5196 48.8946 35.7071 48.7071C35.8946 48.5196 36 48.2652 36 48C36 47.7348 35.8946 47.4804 35.7071 47.2929C35.5196 47.1054 35.2652 47 35 47H16C14.6739 47 13.4021 46.4732 12.4645 45.5355C11.5268 44.5979 11 43.3261 11 42V23C11 22.7348 10.8946 22.4804 10.7071 22.2929C10.5196 22.1054 10.2652 22 10 22C9.73478 22 9.48043 22.1054 9.29289 22.2929C9.10536 22.4804 9 22.7348 9 23V24H1C0.734784 24 0.48043 24.1054 0.292893 24.2929C0.105357 24.4804 0 24.7348 0 25C0 25.2652 0.105357 25.5196 0.292893 25.7071C0.48043 25.8946 0.734784 26 1 26H9V32H1C0.734784 32 0.48043 32.1054 0.292893 32.2929C0.105357 32.4804 0 32.7348 0 33C0 33.2652 0.105357 33.5196 0.292893 33.7071C0.48043 33.8946 0.734784 34 1 34H9V40H1Z" fill="white"/>
</svg>
