<svg width="68" height="68" viewBox="0 0 68 68" fill="none" xmlns="http://www.w3.org/2000/svg">
<rect width="67.5" height="67.5" rx="8" fill="#FFFBFF"/>
<path fill-rule="evenodd" clip-rule="evenodd" d="M41.3541 39.5928C41.7203 39.2266 42.3139 39.2266 42.6799 39.5928L46.8031 43.7158C46.979 43.8916 47.0778 44.1301 47.0778 44.3788C47.0778 44.6274 46.979 44.8659 46.8031 45.0416L39.9311 51.9136C39.7877 52.057 39.6017 52.15 39.4009 52.1787L34.5905 52.8659C34.2983 52.9075 34.0036 52.8093 33.7951 52.6008C33.5864 52.3921 33.4881 52.0973 33.5298 51.8052L34.217 46.9948C34.2457 46.794 34.3388 46.608 34.4823 46.4646L41.3541 39.5928ZM42.0171 41.5814L36.029 47.5695L35.5629 50.8328L38.8264 50.3667L44.8143 44.3788L42.0171 41.5814Z" fill="#040035"/>
<path fill-rule="evenodd" clip-rule="evenodd" d="M44.1025 36.8441C45.2277 35.7189 47.0519 35.7189 48.1771 36.8441L49.5515 38.2184C50.6767 39.3436 50.6767 41.1678 49.5515 42.293L46.8029 45.0418C46.627 45.2176 46.3885 45.3165 46.1399 45.3165C45.8912 45.3165 45.6529 45.2176 45.4771 45.0418L41.3539 40.9188C40.9877 40.5526 40.9877 39.9591 41.3539 39.5929L44.1025 36.8441ZM45.4283 38.17L43.3425 40.2558L46.1399 43.0531L48.2257 40.9671C48.6187 40.5743 48.6187 39.9372 48.2257 39.5444L46.8513 38.17C46.4584 37.777 45.8213 37.777 45.4283 38.17Z" fill="#040035"/>
<path fill-rule="evenodd" clip-rule="evenodd" d="M32.5835 24.7503H23.2084V22.8752H32.5835V24.7503Z" fill="#040035"/>
<path fill-rule="evenodd" clip-rule="evenodd" d="M36.3336 34.1254H23.2084V32.2504H36.3336V34.1254Z" fill="#040035"/>
<path fill-rule="evenodd" clip-rule="evenodd" d="M28.8335 43.5005H23.2084V41.6255H28.8335V43.5005Z" fill="#040035"/>
<path fill-rule="evenodd" clip-rule="evenodd" d="M23.208 15.375C20.6191 15.375 18.5204 17.4737 18.5204 20.0626V46.313C18.5204 48.9018 20.6191 51.0006 23.208 51.0006H28.8331V52.8756H23.208C19.5836 52.8756 16.6454 49.9374 16.6454 46.313V20.0626C16.6454 16.4382 19.5836 13.5 23.208 13.5H36.3332C36.5818 13.5 36.8203 13.5988 36.9962 13.7746L48.2464 25.0248C48.422 25.2006 48.5209 25.439 48.5209 25.6877V31.3128H46.6458V26.076L35.9449 15.375H23.208Z" fill="#040035"/>
<path fill-rule="evenodd" clip-rule="evenodd" d="M35.9747 13.5714C36.3249 13.4263 36.7283 13.5065 36.9964 13.7746L48.2466 25.0248C48.5147 25.2929 48.5948 25.6962 48.4496 26.0465C48.3045 26.3968 47.9627 26.6252 47.5836 26.6252H41.9585C38.334 26.6252 35.3959 23.6871 35.3959 20.0626V14.4375C35.3959 14.0584 35.6243 13.7165 35.9747 13.5714ZM37.2709 16.7009V20.0626C37.2709 22.6515 39.3696 24.7502 41.9585 24.7502H45.3202L37.2709 16.7009Z" fill="#040035"/>
</svg>
