<svg width="52" height="52" viewBox="0 0 52 52" fill="none" xmlns="http://www.w3.org/2000/svg">
<path fill-rule="evenodd" clip-rule="evenodd" d="M10.2378 42.802L8.25054 44.7893L10.2378 46.7771C10.5251 47.0649 10.5251 47.5317 10.2378 47.8194C10.0937 47.9632 9.90539 48.0355 9.71676 48.0355C9.52855 48.0355 9.33981 47.9632 9.1957 47.8194L7.20844 45.8317L5.22212 47.8194C4.9338 48.1073 4.46727 48.1073 4.18001 47.8194C3.89127 47.5316 3.89127 47.0648 4.18001 46.7771L6.16622 44.7893L4.18001 42.802C3.89127 42.5142 3.89127 42.0474 4.18001 41.7597C4.46727 41.4718 4.93391 41.4718 5.22212 41.7597L7.20833 43.7469L9.1956 41.7597C9.48286 41.4718 9.95044 41.4718 10.2377 41.7597C10.5251 42.0475 10.5251 42.5142 10.2378 42.802ZM45.2245 0H44.3589C40.5847 0.22469 37.5833 3.36677 37.5833 7.19681C37.5833 11.1728 40.8167 14.4075 44.7917 14.4075C48.7661 14.4075 52 11.1728 52 7.19681C52.0001 3.36666 48.9982 0.22469 45.2245 0ZM7.20833 50.526C10.3704 50.526 12.9432 47.9526 12.9432 44.7893C12.9432 41.6264 10.3705 39.0531 7.20833 39.0531C4.04622 39.0531 1.47358 41.6264 1.47358 44.7893C1.47358 47.9527 4.04632 50.526 7.20833 50.526ZM7.20833 37.5791C3.23348 37.5791 0 40.8138 0 44.7893C0 48.7653 3.23348 52 7.20833 52C11.1833 52 14.4168 48.7653 14.4168 44.7893C14.4168 40.8138 11.1834 37.5791 7.20833 37.5791ZM47.2233 16.4587C48.576 19.4645 49.261 22.6726 49.261 25.9931C49.261 32.2079 46.8409 38.0507 42.4475 42.4453C38.0549 46.8399 32.2136 49.2597 26.0004 49.2597C23.4093 49.2597 20.8823 48.8405 18.4646 48.0117L19.8327 50.3815C20.0357 50.7338 19.9149 51.1846 19.5623 51.3883C19.4464 51.4551 19.32 51.4868 19.1947 51.4868C18.94 51.4868 18.6925 51.355 18.5557 51.1182L16.1316 46.9188C16.0335 46.7494 16.0073 46.5482 16.0578 46.3594C16.1083 46.1701 16.2327 46.0096 16.4011 45.912L20.5999 43.4868C20.9526 43.2832 21.4033 43.4041 21.6074 43.7569C21.8105 44.1092 21.6896 44.5601 21.337 44.7637L18.4379 46.4378C20.8536 47.3331 23.3931 47.786 26.0005 47.786C38.014 47.786 47.7876 38.0098 47.7876 25.9933C47.7876 22.8829 47.1457 19.878 45.8792 17.0634C45.7127 16.6923 45.8782 16.2558 46.2497 16.0888C46.6199 15.9216 47.0568 16.0871 47.2233 16.4587ZM4.77685 35.5279C4.89969 35.8015 5.16864 35.963 5.44948 35.963C5.55054 35.963 5.65254 35.9423 5.75064 35.8981C6.12212 35.7312 6.28759 35.2947 6.12117 34.9236C4.85464 32.109 4.21275 29.1041 4.21275 25.9932C4.21275 13.9771 13.9863 4.20098 26.0004 4.20098C28.6072 4.20098 31.1463 4.65384 33.5624 5.54912L30.6633 7.22324C30.3106 7.42687 30.1893 7.87772 30.3939 8.23003C30.5969 8.58275 31.0472 8.7032 31.4003 8.49957L35.5991 6.07484C35.9508 5.87173 36.0717 5.42088 35.8686 5.06805L33.444 0.86812C33.2409 0.515923 32.7896 0.394944 32.438 0.598576C32.0853 0.802208 31.9645 1.25306 32.1675 1.60526L33.5361 3.97503C31.1179 3.14618 28.5903 2.7265 26.0003 2.7265C19.7875 2.7265 13.9452 5.1467 9.55265 9.54131C5.15864 13.9359 2.73853 19.7787 2.73853 25.9932C2.73864 29.314 3.42517 32.522 4.77685 35.5279ZM26.0003 20.1082C22.7559 20.1082 20.1169 22.7484 20.1169 25.9931C20.1169 29.2382 22.7559 31.8785 26.0003 31.8785C29.2441 31.8785 31.8831 29.2382 31.8831 25.9931C31.8832 22.7484 29.2442 20.1082 26.0003 20.1082ZM26.0003 33.3524C30.0569 33.3524 33.3567 30.0507 33.3567 25.9931C33.3567 21.9354 30.0569 18.6342 26.0003 18.6342C21.9431 18.6342 18.6433 21.9354 18.6433 25.9931C18.6433 30.0507 21.9431 33.3524 26.0003 33.3524ZM15.8041 34.0049C16.9062 32.9025 17.2198 31.3211 16.6219 29.8784C16.0251 28.4361 14.6852 27.5399 13.1264 27.5399C13.0338 27.5399 12.958 27.4641 12.958 27.3714V24.6152C12.958 24.5226 13.0338 24.4468 13.1264 24.4468C14.6853 24.4468 16.0251 23.5505 16.6219 22.1077C17.2198 20.6655 16.9062 19.084 15.8041 17.9816C15.7378 17.9157 15.7378 17.8092 15.8041 17.7433L17.7528 15.7942C17.8176 15.7288 17.9252 15.7288 17.9906 15.7942C19.0927 16.8971 20.6737 17.2107 22.1156 16.6131C23.5579 16.0156 24.4541 14.6755 24.4541 13.1162C24.4541 13.0236 24.5293 12.9478 24.6225 12.9478H27.378C27.4706 12.9478 27.5464 13.0236 27.5464 13.1162C27.5464 14.6754 28.4424 16.0156 29.8843 16.6131C31.3266 17.2107 32.9076 16.897 34.0098 15.7942C34.0756 15.7288 34.1822 15.7288 34.2475 15.7942L36.1962 17.7433C36.2625 17.8092 36.2625 17.9158 36.1962 17.9816C35.0941 19.084 34.7801 20.6655 35.378 22.1077C35.9748 23.5505 37.3151 24.4468 38.8739 24.4468C38.9665 24.4468 39.0423 24.5226 39.0423 24.6152V27.3714C39.0423 27.4641 38.9665 27.5399 38.8739 27.5399C37.3151 27.5399 35.9748 28.4361 35.378 29.8784C34.7801 31.3212 35.0942 32.9026 36.1972 34.0049C36.2373 34.0456 36.2458 34.0921 36.2458 34.1238C36.2458 34.1555 36.2373 34.2025 36.1962 34.2432L34.2475 36.1922C34.1822 36.2576 34.0756 36.2576 34.0098 36.1922C32.9076 35.0893 31.3266 34.7757 29.8843 35.3733C28.4424 35.9708 27.5464 37.3109 27.5464 38.8701C27.5464 38.9627 27.4706 39.0385 27.378 39.0385H24.6225C24.5293 39.0385 24.4541 38.9627 24.4541 38.8701C24.4541 37.3089 23.559 35.9683 22.1171 35.3713C21.6336 35.1711 21.1349 35.073 20.643 35.073C19.6683 35.073 18.7241 35.4579 17.9906 36.1922C17.9252 36.2576 17.8177 36.2576 17.7528 36.1922L15.8041 34.2432C15.7378 34.1774 15.7378 34.0708 15.8041 34.0049ZM17.8716 37.7154C17.4328 37.7154 17.0196 37.5445 16.7106 37.2348L14.762 35.2857C14.1211 34.6451 14.1211 33.6031 14.762 32.9625C15.5665 32.1584 15.5471 31.1333 15.2608 30.4427C14.975 29.752 14.2642 29.0138 13.1264 29.0138C12.2211 29.0138 11.484 28.2771 11.484 27.3714V24.6152C11.484 23.7095 12.2211 22.9728 13.1264 22.9728C14.2642 22.9728 14.975 22.2346 15.2608 21.5439C15.5471 20.8528 15.5663 19.8282 14.762 19.0236C14.1211 18.3835 14.1211 17.3415 14.762 16.7009L16.7106 14.7518C17.3506 14.1118 18.3927 14.1118 19.0326 14.7518C19.837 15.5565 20.8608 15.5376 21.5513 15.2512C22.2418 14.9648 22.9798 14.2539 22.9798 13.1163C22.9798 12.2106 23.7169 11.4739 24.6224 11.4739H27.3778C28.2833 11.4739 29.0198 12.2106 29.0198 13.1163C29.0198 14.2539 29.7579 14.9648 30.4484 15.2512C31.1393 15.5371 32.1631 15.5563 32.9675 14.7518C33.6075 14.1118 34.6497 14.1118 35.2897 14.7518L37.2378 16.7009C37.5483 17.0116 37.7192 17.4238 37.7192 17.8626C37.7192 18.3011 37.5484 18.7134 37.2378 19.0235C36.4339 19.8281 36.4537 20.8527 36.7389 21.5438C37.0252 22.2344 37.736 22.9727 38.8738 22.9727C39.7792 22.9727 40.5158 23.7094 40.5158 24.6151V27.3713C40.5158 28.277 39.7792 29.0137 38.8738 29.0137C37.736 29.0137 37.0252 29.7519 36.7389 30.4426C36.4537 31.1332 36.4339 32.1583 37.2378 32.9624C37.5483 33.2725 37.7192 33.6853 37.7192 34.1238C37.7192 34.5627 37.5484 34.975 37.2378 35.2857L35.2897 37.2348C34.9801 37.5445 34.5674 37.7154 34.1286 37.7154C33.6908 37.7154 33.2782 37.5445 32.9675 37.2348C32.1631 36.4302 31.1393 36.449 30.4484 36.7354C29.758 37.0213 29.0198 37.7327 29.0198 38.8703C29.0198 39.776 28.2833 40.5127 27.3778 40.5127H24.6224C23.7169 40.5127 22.9798 39.776 22.9798 38.8703C22.9798 37.7307 22.2433 37.0193 21.5528 36.733C20.8624 36.4471 19.838 36.4288 19.0326 37.2349C18.722 37.5444 18.3095 37.7154 17.8716 37.7154ZM48.3214 5.07237C48.5779 5.38898 48.5294 5.85267 48.2124 6.10885L43.5034 9.92731C43.3716 10.0343 43.2071 10.0918 43.0392 10.0918C43.003 10.0918 42.9664 10.0888 42.9292 10.0833C42.7251 10.0526 42.5429 9.93721 42.4275 9.76579L40.7904 7.32727C40.564 6.98939 40.6537 6.53159 40.9915 6.30469C41.3292 6.07779 41.7875 6.16749 42.0148 6.50579L43.2021 8.27456L47.285 4.96402C47.6012 4.70764 48.0653 4.75628 48.3214 5.07237ZM44.7917 12.9331C41.6296 12.9331 39.0569 10.3603 39.0569 7.19692C39.0569 4.03399 41.6296 1.46069 44.7917 1.46069C47.9538 1.46069 50.5264 4.03399 50.5264 7.19692C50.5265 10.3603 47.9538 12.9331 44.7917 12.9331Z" fill="white"/>
</svg>
