<svg width="41" height="54" viewBox="0 0 41 54" fill="none" xmlns="http://www.w3.org/2000/svg">
<path d="M38.1153 13.2284L35.5308 11.1249C34.8615 10.5814 34.4092 9.83967 34.2275 9.01736H34.318C34.7719 9.01736 35.1403 8.6498 35.1403 8.19506C35.1403 7.74033 34.7719 7.37276 34.318 7.37276H6.40162C5.77996 7.37276 5.27425 6.86704 5.27425 6.24538V2.77198C5.27425 2.15032 5.77996 1.6446 6.40162 1.6446H34.318C34.9396 1.6446 35.4462 2.15032 35.4462 2.77198V6.24538C35.4462 6.70012 35.8145 7.06769 36.2685 7.06769C36.7224 7.06769 37.0908 6.70012 37.0908 6.24538V2.77198C37.0908 1.24414 35.8466 0 34.318 0H6.40162C4.87296 0 3.62964 1.24414 3.62964 2.77198V6.24538C3.62964 7.77322 4.87296 9.01736 6.40162 9.01736H14.9034H32.5541C32.7548 10.3396 33.4373 11.5435 34.4931 12.4011L37.0776 14.5038C38.3464 15.5366 39.0741 17.0661 39.0741 18.7008V46.516C39.0741 49.4993 36.6475 51.9259 33.6642 51.9259H7.05453C4.07204 51.9259 1.6446 49.4993 1.6446 46.516V18.7008C1.6446 17.0661 2.37234 15.5358 3.64115 14.5038L6.22647 12.4011C6.57924 12.115 6.63269 11.5969 6.34571 11.245C6.05954 10.8922 5.54067 10.8388 5.18873 11.1257L2.60341 13.2284C0.948936 14.5745 0 16.5694 0 18.7008V46.516C0 50.4055 3.16422 53.5705 7.05453 53.5705H33.6642C37.5537 53.5705 40.7188 50.4055 40.7188 46.516V18.7008C40.7188 16.5694 39.7698 14.5745 38.1153 13.2284Z" fill="white"/>
<path d="M16.1183 19.0412C10.4608 20.8824 6.66016 26.1204 6.66016 32.078C6.66016 39.63 12.8036 45.7726 20.3556 45.7726C27.9117 45.7726 34.0601 39.6292 34.0601 32.078C34.0601 24.5219 27.9117 18.3735 20.3556 18.3735C19.9017 18.3735 19.5333 18.7411 19.5333 19.1958C19.5333 19.6506 19.9017 20.0181 20.3556 20.0181C27.0056 20.0181 32.4155 25.4281 32.4155 32.078C32.4155 38.7222 27.0056 44.128 20.3556 44.128C13.7106 44.128 8.30476 38.7222 8.30476 32.078C8.30476 26.8358 11.6491 22.226 16.6281 20.6061C17.0598 20.4655 17.2958 20.0017 17.156 19.5692C17.0146 19.1375 16.5516 18.9031 16.1183 19.0412Z" fill="white"/>
<path d="M20.361 24.1082C19.9071 24.1082 19.5387 24.4757 19.5387 24.9305V25.7503C17.9344 26.1244 16.733 27.5561 16.733 29.2697C16.733 31.2704 18.3604 32.8977 20.361 32.8977C21.4514 32.8977 22.3387 33.785 22.3387 34.8754C22.3387 35.9658 21.4514 36.853 20.361 36.853C19.2674 36.853 18.3776 35.9658 18.3776 34.8754C18.3776 34.4206 18.0092 34.0531 17.5553 34.0531C17.1014 34.0531 16.733 34.4206 16.733 34.8754C16.733 36.5891 17.9344 38.0215 19.5387 38.3957V39.2155C19.5387 39.6702 19.9071 40.0378 20.361 40.0378C20.8149 40.0378 21.1833 39.6702 21.1833 39.2155V38.3957C22.7844 38.0207 23.9833 36.5891 23.9833 34.8762C23.9833 32.8788 22.3584 31.254 20.361 31.254C19.2674 31.254 18.3776 30.3642 18.3776 29.2706C18.3776 28.1802 19.2674 27.2938 20.361 27.2938C21.4514 27.2938 22.3387 28.1802 22.3387 29.2706C22.3387 29.7253 22.7071 30.0929 23.161 30.0929C23.6149 30.0929 23.9833 29.7253 23.9833 29.2706C23.9833 27.5577 22.7844 26.1261 21.1833 25.7519V24.9313C21.1833 24.4757 20.8149 24.1082 20.361 24.1082Z" fill="white"/>
</svg>
