<svg width="30" height="30" viewBox="0 0 30 30" fill="none" xmlns="http://www.w3.org/2000/svg">
<path d="M17.1429 2.14286C17.1429 1.57454 16.9171 1.02949 16.5152 0.627629C16.1134 0.225765 15.5683 0 15 0C14.4317 0 13.8866 0.225765 13.4848 0.627629C13.0829 1.02949 12.8571 1.57454 12.8571 2.14286V12.8571H2.14286C1.57454 12.8571 1.02949 13.0829 0.627629 13.4848C0.225765 13.8866 0 14.4317 0 15C0 15.5683 0.225765 16.1134 0.627629 16.5152C1.02949 16.9171 1.57454 17.1429 2.14286 17.1429H12.8571V27.8571C12.8571 28.4255 13.0829 28.9705 13.4848 29.3724C13.8866 29.7742 14.4317 30 15 30C15.5683 30 16.1134 29.7742 16.5152 29.3724C16.9171 28.9705 17.1429 28.4255 17.1429 27.8571V17.1429H27.8571C28.4255 17.1429 28.9705 16.9171 29.3724 16.5152C29.7742 16.1134 30 15.5683 30 15C30 14.4317 29.7742 13.8866 29.3724 13.4848C28.9705 13.0829 28.4255 12.8571 27.8571 12.8571H17.1429V2.14286Z" fill="#F54387"/>
</svg>
