<svg width="278" height="238" viewBox="0 0 278 238" fill="none" xmlns="http://www.w3.org/2000/svg">
<g clip-path="url(#clip0_25_77)">
<circle cx="97.9988" cy="57.9997" r="120.882" stroke="#E0E0E0"/>
<circle cx="97.854" cy="56.3711" r="147.674" stroke="#E0E0E0"/>
<circle cx="98" cy="58" r="179.5" stroke="#E0E0E0"/>
<path d="M35.1638 98.2052L167.976 104.064C169.151 104.116 170.234 103.53 170.709 102.585C171.185 101.64 170.956 100.526 170.132 99.7738L77.156 14.856C76.3176 14.0902 75.0362 13.8577 73.9407 14.2726C73.704 14.3623 73.4865 14.478 73.2919 14.6152C72.5862 15.1128 72.1798 15.8916 72.2335 16.7206L79.5356 55.8626C80.4801 60.9256 78.0941 65.9838 73.3823 68.9072L33.4085 93.7085C32.5035 94.3757 32.1631 95.4715 32.5516 96.4671C32.9406 97.4624 33.978 98.1529 35.1638 98.2052Z" fill="#F54387"/>
<path d="M42.7262 137.968L50.5104 134.141C50.5793 134.107 50.6653 134.122 50.7275 134.179C50.7897 134.236 50.8155 134.323 50.7926 134.4L48.2141 142.994C48.1909 143.072 48.122 143.122 48.0413 143.119C48.0239 143.119 48.0067 143.116 47.9901 143.111C47.93 143.093 47.8779 143.046 47.8516 142.984L46.9006 139.932C46.7776 139.537 46.4543 139.228 46.0669 139.135L42.7803 138.342C42.7021 138.316 42.6427 138.245 42.6308 138.162C42.6188 138.079 42.6567 138.002 42.7262 137.968Z" fill="#F9B816"/>
<g filter="url(#filter0_dd_25_77)">
<rect x="10" y="141.414" width="36.2344" height="27.7304" rx="5" fill="white"/>
</g>
<path d="M26.2998 156.124C26.266 156.175 26.2319 156.223 26.1992 156.27L26.1953 156.267L26.1602 156.052C26.2329 156.028 26.3085 156.004 26.3867 155.981L26.2998 156.124ZM29.4072 155.593C29.5219 155.596 29.6314 155.601 29.7354 155.609L29.7285 155.764L29.6738 155.83C29.5843 155.755 29.4947 155.676 29.4072 155.593Z" stroke="#040035"/>
<mask id="path-8-inside-1_25_77" fill="white">
<path d="M25.172 158.92C25.1709 158.882 25.177 158.844 25.1898 158.809C25.2026 158.773 25.222 158.741 25.2466 158.714C25.2712 158.688 25.3006 158.667 25.3329 158.653C25.3652 158.639 25.3998 158.633 25.4345 158.634H26.0794C26.485 158.634 26.8699 158.921 26.8699 159.492C26.8699 159.986 26.5945 160.347 26.0956 160.347H25.6971V160.876C25.6971 161.078 25.5864 161.181 25.4345 161.181C25.2826 161.181 25.172 161.078 25.172 160.876V158.92ZM25.6971 159.835H25.9787C26.2026 159.835 26.3257 159.668 26.3257 159.491C26.3257 159.264 26.1863 159.143 25.9787 159.143H25.6971V159.835Z"/>
</mask>
<path d="M25.172 158.92H26.172V158.905L26.1716 158.891L25.172 158.92ZM25.4345 158.634L25.3942 159.633L25.4143 159.634H25.4345V158.634ZM25.6971 160.347V159.347H24.6971V160.347H25.6971ZM25.6971 159.835H24.6971V160.835H25.6971V159.835ZM25.6971 159.143V158.143H24.6971V159.143H25.6971ZM25.172 158.92L26.1716 158.891C26.1741 158.978 26.1604 159.066 26.1297 159.15L25.1898 158.809L24.2499 158.467C24.1935 158.622 24.1678 158.786 24.1724 158.948L25.172 158.92ZM25.1898 158.809L26.1297 159.15C26.099 159.235 26.0505 159.317 25.9829 159.391L25.2466 158.714L24.5102 158.038C24.3934 158.165 24.3063 158.312 24.2499 158.467L25.1898 158.809ZM25.2466 158.714L25.9829 159.391C25.9152 159.465 25.8288 159.528 25.7265 159.572L25.3329 158.653L24.9393 157.734C24.7723 157.805 24.6272 157.91 24.5102 158.038L25.2466 158.714ZM25.3329 158.653L25.7265 159.572C25.6238 159.616 25.5102 159.638 25.3942 159.633L25.4345 158.634L25.4749 157.635C25.2894 157.627 25.1067 157.662 24.9393 157.734L25.3329 158.653ZM25.4345 158.634V159.634H26.0794V158.634V157.634H25.4345V158.634ZM26.0794 158.634V159.634C26.049 159.634 25.9874 159.622 25.9288 159.565C25.8998 159.537 25.8823 159.507 25.8736 159.485C25.8652 159.464 25.8699 159.463 25.8699 159.492H26.8699H27.8699C27.8699 158.97 27.6874 158.486 27.3248 158.133C26.9722 157.789 26.5154 157.634 26.0794 157.634V158.634ZM26.8699 159.492H25.8699C25.8699 159.561 25.8511 159.523 25.9128 159.451C25.9443 159.415 25.9855 159.384 26.0293 159.365C26.0719 159.347 26.0985 159.347 26.0956 159.347V160.347V161.347C26.6053 161.347 27.0867 161.152 27.4269 160.758C27.751 160.382 27.8699 159.917 27.8699 159.492H26.8699ZM26.0956 160.347V159.347H25.6971V160.347V161.347H26.0956V160.347ZM25.6971 160.347H24.6971V160.876H25.6971H26.6971V160.347H25.6971ZM25.6971 160.876H24.6971C24.6971 160.798 24.7201 160.609 24.8845 160.429C25.0565 160.241 25.276 160.181 25.4345 160.181V161.181V162.181C25.7449 162.181 26.0957 162.069 26.361 161.779C26.6187 161.497 26.6971 161.155 26.6971 160.876H25.6971ZM25.4345 161.181V160.181C25.5919 160.181 25.8117 160.241 25.9842 160.429C26.1492 160.61 26.172 160.799 26.172 160.876H25.172H24.172C24.172 161.155 24.2501 161.497 24.5084 161.779C24.7742 162.07 25.1252 162.181 25.4345 162.181V161.181ZM25.172 160.876H26.172V158.92H25.172H24.172V160.876H25.172ZM25.6971 159.835V160.835H25.9787V159.835V158.835H25.6971V159.835ZM25.9787 159.835V160.835C26.3566 160.835 26.7148 160.686 26.972 160.407C27.2168 160.141 27.3257 159.805 27.3257 159.491H26.3257H25.3257C25.3257 159.354 25.373 159.191 25.5003 159.052C25.64 158.901 25.8247 158.835 25.9787 158.835V159.835ZM26.3257 159.491H27.3257C27.3257 159.168 27.2212 158.798 26.9236 158.512C26.6324 158.231 26.2727 158.143 25.9787 158.143V159.143V160.143C25.8924 160.143 25.7062 160.116 25.5366 159.952C25.3605 159.783 25.3257 159.586 25.3257 159.491H26.3257ZM25.9787 159.143V158.143H25.6971V159.143V160.143H25.9787V159.143ZM25.6971 159.143H24.6971V159.835H25.6971H26.6971V159.143H25.6971Z" fill="#040035" mask="url(#path-8-inside-1_25_77)"/>
<mask id="path-10-inside-2_25_77" fill="white">
<path d="M27.297 158.9C27.2958 158.864 27.3015 158.829 27.3139 158.796C27.3263 158.764 27.345 158.734 27.369 158.709C27.3929 158.684 27.4216 158.664 27.4531 158.652C27.4846 158.639 27.5184 158.633 27.5522 158.634H28.1615C28.8291 158.634 29.2072 159.185 29.2072 159.785C29.2072 160.549 28.7159 160.968 28.1615 160.968H27.5522C27.5184 160.97 27.4846 160.964 27.4531 160.951C27.4216 160.938 27.3929 160.918 27.369 160.894C27.345 160.869 27.3263 160.839 27.3139 160.806C27.3015 160.773 27.2958 160.738 27.297 160.703V158.9ZM27.8074 160.477H28.0783C28.475 160.477 28.661 160.191 28.661 159.785C28.661 159.391 28.4718 159.126 28.1002 159.126H27.8074V160.477Z"/>
</mask>
<path d="M27.297 158.9H28.297V158.882L28.2964 158.864L27.297 158.9ZM27.5522 158.634L27.5136 159.633L27.5329 159.634H27.5522V158.634ZM27.5522 160.968V159.968H27.5329L27.5136 159.969L27.5522 160.968ZM27.297 160.703L28.2964 160.738L28.297 160.721V160.703H27.297ZM27.8074 160.477H26.8074V161.477H27.8074V160.477ZM27.8074 159.126V158.126H26.8074V159.126H27.8074ZM27.297 158.9L28.2964 158.864C28.2999 158.96 28.2842 159.057 28.2496 159.149L27.3139 158.796L26.3783 158.443C26.3189 158.601 26.2917 158.768 26.2977 158.935L27.297 158.9ZM27.3139 158.796L28.2496 159.149C28.2149 159.241 28.1613 159.328 28.0901 159.402L27.369 158.709L26.6479 158.016C26.5287 158.14 26.4377 158.286 26.3783 158.443L27.3139 158.796ZM27.369 158.709L28.0901 159.402C28.0188 159.476 27.9312 159.536 27.8314 159.577L27.4531 158.652L27.0748 157.726C26.912 157.792 26.7671 157.892 26.6479 158.016L27.369 158.709ZM27.4531 158.652L27.8314 159.577C27.7316 159.618 27.6232 159.637 27.5136 159.633L27.5522 158.634L27.5908 157.635C27.4135 157.628 27.2377 157.659 27.0748 157.726L27.4531 158.652ZM27.5522 158.634V159.634H28.1615V158.634V157.634H27.5522V158.634ZM28.1615 158.634V159.634C28.1879 159.634 28.1901 159.639 28.1798 159.634C28.1703 159.629 28.1662 159.624 28.1677 159.626C28.1703 159.629 28.1805 159.643 28.1901 159.672C28.1998 159.7 28.2072 159.739 28.2072 159.785H29.2072H30.2072C30.2072 159.284 30.0505 158.76 29.7017 158.343C29.3373 157.907 28.797 157.634 28.1615 157.634V158.634ZM29.2072 159.785H28.2072C28.2072 159.868 28.1939 159.918 28.1848 159.943C28.1759 159.967 28.1686 159.973 28.1704 159.971C28.1779 159.963 28.1825 159.968 28.1615 159.968V160.968V161.968C28.6948 161.968 29.2223 161.764 29.6141 161.355C30.0091 160.943 30.2072 160.387 30.2072 159.785H29.2072ZM28.1615 160.968V159.968H27.5522V160.968V161.968H28.1615V160.968ZM27.5522 160.968L27.5136 159.969C27.6232 159.965 27.7316 159.984 27.8314 160.025L27.4531 160.951L27.0748 161.877C27.2377 161.943 27.4135 161.975 27.5908 161.968L27.5522 160.968ZM27.4531 160.951L27.8314 160.025C27.9312 160.066 28.0188 160.127 28.0901 160.201L27.369 160.894L26.6479 161.586C26.7671 161.71 26.912 161.81 27.0748 161.877L27.4531 160.951ZM27.369 160.894L28.0901 160.201C28.1613 160.275 28.2149 160.361 28.2496 160.453L27.3139 160.806L26.3783 161.159C26.4377 161.317 26.5287 161.462 26.6479 161.586L27.369 160.894ZM27.3139 160.806L28.2496 160.453C28.2842 160.545 28.2999 160.642 28.2964 160.738L27.297 160.703L26.2977 160.667C26.2917 160.834 26.3189 161.001 26.3783 161.159L27.3139 160.806ZM27.297 160.703H28.297V158.9H27.297H26.297V160.703H27.297ZM27.8074 160.477V161.477H28.0783V160.477V159.477H27.8074V160.477ZM28.0783 160.477V161.477C28.5414 161.477 28.9942 161.296 29.3044 160.901C29.586 160.543 29.661 160.122 29.661 159.785H28.661H27.661C27.661 159.854 27.643 159.779 27.7324 159.665C27.7809 159.603 27.8475 159.55 27.9248 159.515C27.9992 159.481 28.0569 159.477 28.0783 159.477V160.477ZM28.661 159.785H29.661C29.661 159.443 29.5803 159.027 29.2964 158.678C28.988 158.298 28.5457 158.126 28.1002 158.126V159.126V160.126C28.0735 160.126 28.0141 160.121 27.9395 160.088C27.8624 160.054 27.7945 160.001 27.7436 159.938C27.6472 159.819 27.661 159.733 27.661 159.785H28.661ZM28.1002 159.126V158.126H27.8074V159.126V160.126H28.1002V159.126ZM27.8074 159.126H26.8074V160.477H27.8074H28.8074V159.126H27.8074Z" fill="#040035" mask="url(#path-10-inside-2_25_77)"/>
<mask id="path-12-inside-3_25_77" fill="white">
<path d="M29.633 158.921C29.6317 158.883 29.6374 158.845 29.6496 158.81C29.6618 158.774 29.6802 158.742 29.7038 158.715C29.7274 158.688 29.7556 158.667 29.7866 158.653C29.8177 158.639 29.8509 158.633 29.8843 158.634H30.6547C30.8131 158.634 30.9064 158.741 30.9064 158.9C30.9064 159.067 30.8131 159.166 30.6547 159.166H30.1359V159.617H30.5897C30.748 159.617 30.841 159.72 30.841 159.883C30.841 160.046 30.748 160.149 30.5897 160.149H30.1359V160.876C30.1359 161.078 30.0299 161.181 29.8843 161.181C29.7387 161.181 29.633 161.078 29.633 160.876V158.921Z"/>
</mask>
<path d="M29.633 158.921H30.633V158.905L30.6325 158.889L29.633 158.921ZM29.8843 158.634L29.8436 159.633L29.8639 159.634H29.8843V158.634ZM30.1359 159.166V158.166H29.1359V159.166H30.1359ZM30.1359 159.617H29.1359V160.617H30.1359V159.617ZM30.1359 160.149V159.149H29.1359V160.149H30.1359ZM29.633 158.921L30.6325 158.889C30.6351 158.97 30.6232 159.053 30.5954 159.135L29.6496 158.81L28.7038 158.485C28.6515 158.637 28.6284 158.796 28.6335 158.954L29.633 158.921ZM29.6496 158.81L30.5954 159.135C30.5675 159.216 30.5224 159.298 30.4567 159.373L29.7038 158.715L28.9509 158.057C28.8381 158.186 28.7561 158.333 28.7038 158.485L29.6496 158.81ZM29.7038 158.715L30.4567 159.373C30.3907 159.449 30.3038 159.517 30.1969 159.565L29.7866 158.653L29.3763 157.741C29.2074 157.817 29.0641 157.928 28.9509 158.057L29.7038 158.715ZM29.7866 158.653L30.1969 159.565C30.0894 159.613 29.9685 159.638 29.8436 159.633L29.8843 158.634L29.9249 157.635C29.7333 157.627 29.5459 157.665 29.3763 157.741L29.7866 158.653ZM29.8843 158.634V159.634H30.6547V158.634V157.634H29.8843V158.634ZM30.6547 158.634V159.634C30.4993 159.634 30.2802 159.575 30.1061 159.387C29.941 159.208 29.9064 159.012 29.9064 158.9H30.9064H31.9064C31.9064 158.629 31.825 158.299 31.5737 158.028C31.3134 157.747 30.9684 157.634 30.6547 157.634V158.634ZM30.9064 158.9H29.9064C29.9064 158.802 29.9359 158.597 30.112 158.41C30.2956 158.215 30.5187 158.166 30.6547 158.166V159.166V160.166C30.9491 160.166 31.298 160.068 31.5678 159.781C31.8301 159.503 31.9064 159.165 31.9064 158.9H30.9064ZM30.6547 159.166V158.166H30.1359V159.166V160.166H30.6547V159.166ZM30.1359 159.166H29.1359V159.617H30.1359H31.1359V159.166H30.1359ZM30.1359 159.617V160.617H30.5897V159.617V158.617H30.1359V159.617ZM30.5897 159.617V160.617C30.4444 160.617 30.2228 160.563 30.0435 160.371C29.8727 160.188 29.841 159.987 29.841 159.883H30.841H31.841C31.841 159.616 31.7628 159.282 31.5059 159.007C31.2405 158.722 30.8933 158.617 30.5897 158.617V159.617ZM30.841 159.883H29.841C29.841 159.779 29.8727 159.578 30.0435 159.395C30.2228 159.203 30.4444 159.149 30.5897 159.149V160.149V161.149C30.8933 161.149 31.2405 161.044 31.5059 160.759C31.7628 160.484 31.841 160.15 31.841 159.883H30.841ZM30.5897 160.149V159.149H30.1359V160.149V161.149H30.5897V160.149ZM30.1359 160.149H29.1359V160.876H30.1359H31.1359V160.149H30.1359ZM30.1359 160.876H29.1359C29.1359 160.809 29.1543 160.626 29.3123 160.445C29.4821 160.251 29.7085 160.181 29.8843 160.181V161.181V162.181C30.2057 162.181 30.5578 162.059 30.8171 161.763C31.0644 161.48 31.1359 161.144 31.1359 160.876H30.1359ZM29.8843 161.181V160.181C30.0591 160.181 30.2862 160.251 30.4567 160.446C30.6151 160.627 30.633 160.81 30.633 160.876H29.633H28.633C28.633 161.143 28.7037 161.479 28.9513 161.762C29.2111 162.06 29.5638 162.181 29.8843 162.181V161.181ZM29.633 160.876H30.633V158.921H29.633H28.633V160.876H29.633Z" fill="#040035" mask="url(#path-12-inside-3_25_77)"/>
<mask id="path-14-inside-4_25_77" fill="white">
<path d="M33.3544 151.278C33.2718 151.278 33.1925 151.311 33.134 151.37C33.0755 151.428 33.0427 151.508 33.0427 151.591V162.033C33.0425 162.205 32.9744 162.369 32.8534 162.49C32.7325 162.612 32.5684 162.68 32.3973 162.68H23.4732C23.3019 162.68 23.1375 162.612 23.0163 162.491C22.8951 162.37 22.8269 162.205 22.8266 162.033V148.24C22.8264 148.068 22.8943 147.904 23.0152 147.782C23.1361 147.66 23.3003 147.592 23.4716 147.591H29.9738V149.506C29.9742 149.809 30.0943 150.099 30.3078 150.313C30.5213 150.527 30.8106 150.647 31.1125 150.647H33.3389C33.4006 150.647 33.4609 150.629 33.5122 150.595C33.5635 150.56 33.6035 150.512 33.6271 150.454C33.6507 150.397 33.6569 150.334 33.6449 150.274C33.6328 150.213 33.6031 150.157 33.5594 150.114L30.5061 147.051C30.4702 147.015 30.4261 146.988 30.3777 146.974C30.3293 146.959 30.278 146.956 30.2283 146.965L23.4716 146.966C23.1353 146.967 22.8129 147.101 22.5751 147.339C22.3373 147.578 22.2035 147.901 22.2031 148.238V162.032C22.2035 162.369 22.3374 162.692 22.5752 162.931C22.8131 163.169 23.1356 163.303 23.472 163.304H32.3962C32.7326 163.303 33.0551 163.169 33.2929 162.931C33.5308 162.692 33.6646 162.369 33.665 162.032V151.591C33.665 151.508 33.6324 151.429 33.5741 151.37C33.5159 151.311 33.4369 151.278 33.3544 151.278ZM31.1125 150.021C30.976 150.021 30.845 149.966 30.7485 149.869C30.6519 149.773 30.5975 149.641 30.5973 149.504V148.027L32.5848 150.019L31.1125 150.021Z"/>
</mask>
<path d="M33.3544 151.278L33.3582 150.278H33.3544V151.278ZM33.0427 162.033L34.0427 162.034V162.033H33.0427ZM32.3973 162.68V163.68H32.3985L32.3973 162.68ZM23.4732 162.68V161.68H23.4726L23.4732 162.68ZM22.8266 162.033H21.8266L21.8266 162.034L22.8266 162.033ZM22.8266 148.24H23.8266L23.8266 148.239L22.8266 148.24ZM23.4716 147.591V146.591L23.4698 146.591L23.4716 147.591ZM29.9738 147.591H30.9738V146.591H29.9738V147.591ZM29.9738 149.506H28.9738L28.9738 149.507L29.9738 149.506ZM31.1125 150.647L31.1115 151.647H31.1125V150.647ZM33.3389 150.647L33.3396 149.647H33.3389V150.647ZM33.5594 150.114L32.8512 150.82L32.8518 150.82L33.5594 150.114ZM30.5061 147.051L31.2143 146.345L31.2114 146.342L30.5061 147.051ZM30.2283 146.965L30.2284 147.965L30.3229 147.965L30.4157 147.948L30.2283 146.965ZM23.4716 146.966L23.4715 145.966L23.4701 145.966L23.4716 146.966ZM22.2031 148.238L21.2031 148.237V148.238H22.2031ZM22.2031 162.032H21.2031L21.2031 162.033L22.2031 162.032ZM23.472 163.304L23.4708 164.304H23.472V163.304ZM32.3962 163.304V164.304L32.3974 164.304L32.3962 163.304ZM33.665 162.032L34.665 162.033V162.032H33.665ZM33.665 151.591L32.665 151.591V151.591H33.665ZM31.1125 150.021L31.1117 151.021L31.1133 151.021L31.1125 150.021ZM30.5973 149.504H29.5973L29.5973 149.506L30.5973 149.504ZM30.5973 148.027L31.3054 147.321L29.5973 145.608V148.027H30.5973ZM32.5848 150.019L32.5856 151.019L34.9926 151.018L33.2928 149.313L32.5848 150.019ZM33.3544 151.278V150.278C33.0057 150.278 32.6718 150.417 32.426 150.663L33.134 151.37L33.842 152.076C33.7132 152.205 33.5378 152.278 33.3544 152.278V151.278ZM33.134 151.37L32.426 150.663C32.1802 150.91 32.0427 151.243 32.0427 151.591H33.0427H34.0427C34.0427 151.772 33.9708 151.947 33.842 152.076L33.134 151.37ZM33.0427 151.591H32.0427V162.033H33.0427H34.0427V151.591H33.0427ZM33.0427 162.033L32.0427 162.032C32.0428 161.94 32.0794 161.85 32.1454 161.784L32.8534 162.49L33.5615 163.197C33.8694 162.888 34.0422 162.47 34.0427 162.034L33.0427 162.033ZM32.8534 162.49L32.1454 161.784C32.2114 161.718 32.3016 161.68 32.3961 161.68L32.3973 162.68L32.3985 163.68C32.8353 163.68 33.2535 163.505 33.5615 163.197L32.8534 162.49ZM32.3973 162.68V161.68H23.4732V162.68V163.68H32.3973V162.68ZM23.4732 162.68L23.4726 161.68C23.5672 161.68 23.6575 161.718 23.7237 161.784L23.0163 162.491L22.3089 163.198C22.6176 163.507 23.0365 163.68 23.4738 163.68L23.4732 162.68ZM23.0163 162.491L23.7237 161.784C23.7898 161.85 23.8265 161.939 23.8266 162.032L22.8266 162.033L21.8266 162.034C21.8272 162.47 22.0003 162.889 22.3089 163.198L23.0163 162.491ZM22.8266 162.033H23.8266V148.24H22.8266H21.8266V162.033H22.8266ZM22.8266 148.24L23.8266 148.239C23.8268 148.331 23.7903 148.421 23.7243 148.487L23.0152 147.782L22.3061 147.077C21.9983 147.386 21.8261 147.805 21.8266 148.241L22.8266 148.24ZM23.0152 147.782L23.7243 148.487C23.6583 148.553 23.5681 148.591 23.4734 148.591L23.4716 147.591L23.4698 146.591C23.0325 146.592 22.614 146.767 22.3061 147.077L23.0152 147.782ZM23.4716 147.591V148.591H29.9738V147.591V146.591H23.4716V147.591ZM29.9738 147.591H28.9738V149.506H29.9738H30.9738V147.591H29.9738ZM29.9738 149.506L28.9738 149.507C28.9746 150.074 29.1994 150.618 29.5999 151.019L30.3078 150.313L31.0157 149.606C30.9892 149.58 30.9738 149.543 30.9738 149.505L29.9738 149.506ZM30.3078 150.313L29.5999 151.019C30.0004 151.421 30.544 151.647 31.1115 151.647L31.1125 150.647L31.1135 149.647C31.0773 149.647 31.0421 149.633 31.0157 149.606L30.3078 150.313ZM31.1125 150.647V151.647H33.3389V150.647V149.647H31.1125V150.647ZM33.3389 150.647L33.3381 151.647C33.5983 151.648 33.8524 151.57 34.0684 151.426L33.5122 150.595L32.956 149.764C33.0693 149.688 33.2029 149.647 33.3396 149.647L33.3389 150.647ZM33.5122 150.595L34.0684 151.426C34.2844 151.281 34.4523 151.076 34.5513 150.836L33.6271 150.454L32.7029 150.073C32.7547 149.947 32.8427 149.84 32.956 149.764L33.5122 150.595ZM33.6271 150.454L34.5513 150.836C34.6503 150.597 34.6762 150.333 34.6257 150.079L33.6449 150.274L32.664 150.469C32.6376 150.336 32.6511 150.198 32.7029 150.073L33.6271 150.454ZM33.6449 150.274L34.6257 150.079C34.5752 149.825 34.4505 149.591 34.2671 149.407L33.5594 150.114L32.8518 150.82C32.7556 150.724 32.6904 150.601 32.664 150.469L33.6449 150.274ZM33.5594 150.114L34.2677 149.408L31.2143 146.345L30.5061 147.051L29.7979 147.757L32.8512 150.82L33.5594 150.114ZM30.5061 147.051L31.2114 146.342C31.0603 146.191 30.8748 146.08 30.6708 146.018L30.3777 146.974L30.0846 147.93C29.9774 147.897 29.88 147.838 29.8008 147.76L30.5061 147.051ZM30.3777 146.974L30.6708 146.018C30.4668 145.955 30.2505 145.943 30.0409 145.983L30.2283 146.965L30.4157 147.948C30.3055 147.969 30.1918 147.963 30.0846 147.93L30.3777 146.974ZM30.2283 146.965L30.2281 145.965L23.4715 145.966L23.4716 146.966L23.4717 147.966L30.2284 147.965L30.2283 146.965ZM23.4716 146.966L23.4701 145.966C22.8681 145.967 22.2917 146.207 21.8669 146.633L22.5751 147.339L23.2832 148.046C23.3341 147.995 23.4024 147.966 23.4731 147.966L23.4716 146.966ZM22.5751 147.339L21.8669 146.633C21.4423 147.059 21.2039 147.636 21.2031 148.237L22.2031 148.238L23.2031 148.24C23.2032 148.166 23.2323 148.097 23.2832 148.046L22.5751 147.339ZM22.2031 148.238H21.2031V162.032H22.2031H23.2031V148.238H22.2031ZM22.2031 162.032L21.2031 162.033C21.2039 162.634 21.4424 163.211 21.8672 163.637L22.5752 162.931L23.2833 162.225C23.2323 162.173 23.2032 162.104 23.2031 162.03L22.2031 162.032ZM22.5752 162.931L21.8672 163.637C22.2921 164.063 22.8687 164.303 23.4708 164.304L23.472 163.304L23.4732 162.304C23.4025 162.304 23.3341 162.276 23.2833 162.225L22.5752 162.931ZM23.472 163.304V164.304H32.3962V163.304V162.304H23.472V163.304ZM32.3962 163.304L32.3974 164.304C32.9994 164.303 33.5761 164.063 34.001 163.637L33.2929 162.931L32.5849 162.225C32.5341 162.276 32.4657 162.304 32.3949 162.304L32.3962 163.304ZM33.2929 162.931L34.001 163.637C34.4258 163.211 34.6643 162.634 34.665 162.033L33.665 162.032L32.665 162.03C32.665 162.104 32.6358 162.173 32.5849 162.225L33.2929 162.931ZM33.665 162.032H34.665V151.591H33.665H32.665V162.032H33.665ZM33.665 151.591L34.665 151.591C34.665 151.244 34.5282 150.911 34.2835 150.665L33.5741 151.37L32.8648 152.075C32.7366 151.946 32.665 151.772 32.665 151.591L33.665 151.591ZM33.5741 151.37L34.2835 150.665C34.0388 150.419 33.7061 150.279 33.3582 150.278L33.3544 151.278L33.3507 152.278C33.1678 152.277 32.9931 152.204 32.8648 152.075L33.5741 151.37ZM31.1125 150.021L31.1132 149.021C31.2424 149.021 31.3657 149.072 31.4562 149.163L30.7485 149.869L30.0407 150.576C30.3244 150.86 30.7095 151.02 31.1117 151.021L31.1125 150.021ZM30.7485 149.869L31.4562 149.163C31.5467 149.254 31.5971 149.376 31.5973 149.503L30.5973 149.504L29.5973 149.506C29.5979 149.907 29.7571 150.292 30.0407 150.576L30.7485 149.869ZM30.5973 149.504H31.5973V148.027H30.5973H29.5973V149.504H30.5973ZM30.5973 148.027L29.8893 148.733L31.8767 150.726L32.5848 150.019L33.2928 149.313L31.3054 147.321L30.5973 148.027ZM32.5848 150.019L32.584 149.019L31.1117 149.021L31.1125 150.021L31.1133 151.021L32.5856 151.019L32.5848 150.019Z" fill="#040035" mask="url(#path-14-inside-4_25_77)"/>
<g filter="url(#filter1_dd_25_77)">
<rect x="15" y="-46" width="36.764" height="26.866" rx="5" fill="white"/>
</g>
<path d="M180.3 125.523L175.451 119.669C175.408 119.617 175.404 119.541 175.44 119.476C175.475 119.411 175.545 119.372 175.614 119.376L183.465 119.821C183.536 119.825 183.593 119.873 183.607 119.942C183.61 119.957 183.611 119.973 183.61 119.988C183.607 120.043 183.578 120.097 183.53 120.132L181.123 121.565C180.812 121.75 180.614 122.088 180.613 122.438L180.608 125.4C180.602 125.472 180.553 125.537 180.485 125.565C180.417 125.592 180.344 125.575 180.3 125.523Z" fill="#F54387"/>
<g filter="url(#filter2_dd_25_77)">
<rect x="183.7" y="122" width="35.5898" height="27.2371" rx="5" fill="white"/>
</g>
<path d="M189.149 129.627H213.844C214.245 129.627 214.57 129.952 214.57 130.354V140.522C214.57 140.923 214.245 141.248 213.844 141.248H189.149C188.748 141.248 188.422 140.923 188.422 140.522V130.354C188.422 129.952 188.748 129.627 189.149 129.627Z" stroke="#040035"/>
<path d="M209.733 132.96C209.764 132.976 209.777 133.014 209.761 133.045L208.76 135.047L208.648 135.271L208.76 135.494L209.761 137.495C209.777 137.527 209.764 137.565 209.733 137.58C209.702 137.596 209.664 137.583 209.648 137.552L209.025 136.307L208.578 135.412L208.13 136.307L207.507 137.552C207.492 137.583 207.454 137.596 207.422 137.58C207.391 137.565 207.378 137.527 207.394 137.495L208.395 135.494L208.506 135.271L208.395 135.047L207.394 133.045C207.378 133.014 207.391 132.976 207.422 132.96C207.454 132.945 207.492 132.957 207.507 132.989L208.578 135.129L209.648 132.989C209.664 132.957 209.702 132.945 209.733 132.96Z" fill="#040035" stroke="#040035"/>
<path d="M204.066 132.953H205.193C205.228 132.954 205.255 132.982 205.255 133.017C205.255 133.052 205.228 133.08 205.193 133.08H204.066C203.479 133.08 203.002 133.557 203.002 134.144V136.397C203.002 136.984 203.479 137.46 204.066 137.46H205.193C205.228 137.46 205.255 137.489 205.255 137.524C205.255 137.558 205.228 137.587 205.193 137.587H204.066C203.409 137.587 202.875 137.054 202.875 136.397V134.144C202.875 133.487 203.409 132.953 204.066 132.953Z" fill="#040035" stroke="#040035"/>
<path d="M199.566 132.953C200.223 132.954 200.755 133.487 200.755 134.144V136.397C200.755 137.054 200.223 137.587 199.566 137.587C198.909 137.587 198.375 137.054 198.375 136.397V134.144C198.375 133.487 198.909 132.953 199.566 132.953ZM199.566 133.08C198.979 133.08 198.502 133.557 198.502 134.144V136.397C198.502 136.984 198.979 137.46 199.566 137.46C200.153 137.46 200.629 136.984 200.629 136.397V134.144C200.629 133.557 200.153 133.08 199.566 133.08Z" fill="#040035" stroke="#040035"/>
<path d="M193.931 132.953H195.058C195.715 132.954 196.248 133.487 196.248 134.144V136.397C196.248 137.054 195.715 137.587 195.058 137.587H193.931C193.896 137.587 193.868 137.559 193.868 137.524V133.017C193.868 132.982 193.896 132.953 193.931 132.953ZM193.995 137.46H195.058C195.645 137.46 196.122 136.984 196.122 136.397V134.144C196.122 133.557 195.645 133.08 195.058 133.08H193.995V137.46Z" fill="#040035" stroke="#040035"/>
<path d="M219.684 53.3038L211.282 54.2334C211.207 54.2416 211.133 54.1992 211.095 54.1264C211.057 54.0535 211.062 53.9648 211.109 53.9026L216.319 46.8787C216.366 46.8154 216.446 46.7925 216.519 46.8214C216.535 46.8276 216.549 46.836 216.563 46.8461C216.612 46.8829 216.644 46.9429 216.648 47.0085L216.509 50.1209C216.491 50.5235 216.684 50.914 217.009 51.1279L219.759 52.9431C219.822 52.9925 219.852 53.0777 219.836 53.1576C219.82 53.2374 219.759 53.2955 219.684 53.3038Z" fill="#F9B816"/>
<g filter="url(#filter3_dd_25_77)">
<rect x="219.703" y="21.0002" width="37.2969" height="28.6899" rx="5" fill="white"/>
</g>
<mask id="path-26-inside-5_25_77" fill="white">
<path d="M244.797 31.9309C244.781 31.8912 244.757 31.8558 244.727 31.8259L240.522 27.5992C240.462 27.538 240.38 27.5039 240.294 27.5039H233.5C232.608 27.5039 231.883 28.2332 231.883 29.1297V41.4855C231.883 42.7714 232.941 43.1112 233.5 43.1112H243.205C244.097 43.1112 244.823 42.3819 244.823 41.4855V32.056C244.823 32.0128 244.814 31.9702 244.797 31.9309ZM244.176 41.4855C244.176 42.0233 243.74 42.4609 243.205 42.4609H233.502C233.34 42.459 232.53 42.4034 232.53 41.4855V29.1297C232.53 28.5918 232.965 28.1542 233.5 28.1542H240.16L243.718 31.7309H241.588C241.053 31.7309 240.617 31.2932 240.617 30.7554V29.78C240.617 29.6005 240.473 29.4548 240.294 29.4548C240.115 29.4548 239.97 29.6005 239.97 29.78V30.7554C239.97 31.6519 240.696 32.3812 241.588 32.3812H244.176V41.4855Z"/>
</mask>
<path d="M244.797 31.9309L243.874 32.315L243.875 32.3178L244.797 31.9309ZM244.727 31.8259L244.019 32.5311L244.019 32.5312L244.727 31.8259ZM240.522 27.5992L239.811 28.3025L239.813 28.3045L240.522 27.5992ZM244.823 32.056H243.823H244.823ZM233.502 42.4609L233.49 43.4609H233.502V42.4609ZM240.16 28.1542L240.869 27.4489L240.575 27.1542H240.16V28.1542ZM243.718 31.7309V32.7309H246.124L244.427 31.0256L243.718 31.7309ZM240.617 29.78L239.617 29.7798V29.78H240.617ZM244.176 32.3812H245.176V31.3812H244.176V32.3812ZM244.797 31.9309L245.721 31.5468C245.655 31.3887 245.559 31.2438 245.436 31.1206L244.727 31.8259L244.019 32.5312C243.955 32.4677 243.907 32.3937 243.874 32.315L244.797 31.9309ZM244.727 31.8259L245.436 31.1206L241.231 26.8939L240.522 27.5992L239.813 28.3045L244.019 32.5311L244.727 31.8259ZM240.522 27.5992L241.233 26.8958C240.984 26.6439 240.645 26.5039 240.294 26.5039V27.5039V28.5039C240.114 28.5039 239.94 28.4322 239.811 28.3025L240.522 27.5992ZM240.294 27.5039V26.5039H233.5V27.5039V28.5039H240.294V27.5039ZM233.5 27.5039V26.5039C232.051 26.5039 230.883 27.6858 230.883 29.1297H231.883H232.883C232.883 28.7807 233.165 28.5039 233.5 28.5039V27.5039ZM231.883 29.1297H230.883V41.4855H231.883H232.883V29.1297H231.883ZM231.883 41.4855H230.883C230.883 42.4482 231.3 43.1533 231.89 43.5865C232.431 43.984 233.056 44.1112 233.5 44.1112V43.1112V42.1112C233.386 42.1112 233.202 42.0685 233.074 41.9747C233.019 41.9348 232.979 41.8885 232.949 41.8295C232.919 41.771 232.883 41.6662 232.883 41.4855H231.883ZM233.5 43.1112V44.1112H243.205V43.1112V42.1112H233.5V43.1112ZM243.205 43.1112V44.1112C244.654 44.1112 245.823 42.9294 245.823 41.4855H244.823H243.823C243.823 41.8345 243.54 42.1112 243.205 42.1112V43.1112ZM244.823 41.4855H245.823V32.056H244.823H243.823V41.4855H244.823ZM244.823 32.056H245.823C245.823 31.8784 245.787 31.7044 245.719 31.544L244.797 31.9309L243.875 32.3178C243.841 32.236 243.823 32.1472 243.823 32.056H244.823ZM244.176 41.4855H243.176C243.176 41.4839 243.176 41.4802 243.178 41.4763C243.179 41.4731 243.181 41.471 243.182 41.4696C243.183 41.4682 243.186 41.4661 243.191 41.4641C243.196 41.4619 243.201 41.4609 243.205 41.4609V42.4609V43.4609C244.297 43.4609 245.176 42.5708 245.176 41.4855H244.176ZM243.205 42.4609V41.4609H233.502V42.4609V43.4609H243.205V42.4609ZM233.502 42.4609L233.514 41.461C233.517 41.461 233.514 41.4611 233.506 41.4604C233.499 41.4597 233.489 41.4584 233.479 41.4563C233.468 41.4543 233.46 41.452 233.455 41.4501C233.45 41.4483 233.451 41.4481 233.456 41.4511C233.461 41.4543 233.472 41.4615 233.486 41.4742C233.492 41.4805 233.499 41.4878 233.506 41.4959C233.512 41.5041 233.518 41.5123 233.522 41.5204C233.527 41.5285 233.53 41.5354 233.532 41.5405C233.534 41.5457 233.535 41.5481 233.535 41.5471C233.534 41.5453 233.53 41.5265 233.53 41.4855H232.53H231.53C231.53 42.3099 231.93 42.879 232.454 43.1823C232.898 43.4391 233.347 43.4591 233.49 43.4609L233.502 42.4609ZM232.53 41.4855H233.53V29.1297H232.53H231.53V41.4855H232.53ZM232.53 29.1297H233.53C233.53 29.1312 233.529 29.1349 233.528 29.1388C233.526 29.142 233.525 29.1441 233.523 29.1455C233.522 29.147 233.519 29.1491 233.515 29.151C233.51 29.1532 233.504 29.1542 233.5 29.1542V28.1542V27.1542C232.408 27.1542 231.53 28.0444 231.53 29.1297H232.53ZM233.5 28.1542V29.1542H240.16V28.1542V27.1542H233.5V28.1542ZM240.16 28.1542L239.451 28.8595L243.009 32.4362L243.718 31.7309L244.427 31.0256L240.869 27.4489L240.16 28.1542ZM243.718 31.7309V30.7309H241.588V31.7309V32.7309H243.718V31.7309ZM241.588 31.7309V30.7309C241.591 30.7309 241.597 30.7318 241.602 30.7341C241.607 30.736 241.609 30.7381 241.611 30.7395C241.612 30.7409 241.614 30.743 241.615 30.7463C241.617 30.7501 241.617 30.7539 241.617 30.7554H240.617H239.617C239.617 31.8407 240.495 32.7309 241.588 32.7309V31.7309ZM240.617 30.7554H241.617V29.78H240.617H239.617V30.7554H240.617ZM240.617 29.78L241.617 29.7801C241.617 29.0537 241.03 28.4548 240.294 28.4548V29.4548V30.4548C239.915 30.4548 239.617 30.1473 239.617 29.7798L240.617 29.78ZM240.294 29.4548V28.4548C239.557 28.4548 238.97 29.0537 238.97 29.78H239.97H240.97C240.97 30.1473 240.673 30.4548 240.294 30.4548V29.4548ZM239.97 29.78H238.97V30.7554H239.97H240.97V29.78H239.97ZM239.97 30.7554H238.97C238.97 32.1993 240.139 33.3812 241.588 33.3812V32.3812V31.3812C241.253 31.3812 240.97 31.1044 240.97 30.7554H239.97ZM241.588 32.3812V33.3812H244.176V32.3812V31.3812H241.588V32.3812ZM244.176 32.3812H243.176V41.4855H244.176H245.176V32.3812H244.176Z" fill="#040035" mask="url(#path-26-inside-5_25_77)"/>
<mask id="path-28-inside-6_25_77" fill="white">
<path d="M241.573 34.8591C241.557 34.8191 241.533 34.7833 241.503 34.7531L240.209 33.4528C240.083 33.3256 239.878 33.3256 239.752 33.4528C239.625 33.5799 239.625 33.7854 239.752 33.9126L240.494 34.6581H236.422C235.863 34.6581 234.805 34.9979 234.805 36.2839V36.9342C234.805 37.114 234.949 37.2594 235.128 37.2594C235.307 37.2594 235.452 37.114 235.452 36.9342V36.2839C235.452 35.366 236.262 35.3104 236.422 35.3084H240.494L239.752 36.054C239.625 36.1811 239.625 36.3866 239.752 36.5138C239.815 36.5772 239.898 36.609 239.981 36.609C240.063 36.609 240.146 36.5772 240.209 36.5138L241.503 35.2135C241.533 35.1836 241.557 35.1475 241.573 35.1075C241.606 35.0281 241.606 34.9384 241.573 34.8591Z"/>
</mask>
<path d="M241.573 34.8591L242.498 34.478L242.498 34.4777L241.573 34.8591ZM241.503 34.7531L242.212 34.0478L242.212 34.0478L241.503 34.7531ZM240.209 33.4528L239.5 34.1581V34.1581L240.209 33.4528ZM239.752 33.9126L239.043 34.6179V34.6179L239.752 33.9126ZM240.494 34.6581V35.6581H242.899L241.203 33.9528L240.494 34.6581ZM236.422 35.3084V34.3083L236.41 34.3085L236.422 35.3084ZM240.494 35.3084L241.203 36.0137L242.899 34.3084H240.494V35.3084ZM240.209 36.5138L239.5 35.8085V35.8085L240.209 36.5138ZM241.503 35.2135L240.798 34.5042L240.794 34.5082L241.503 35.2135ZM241.573 35.1075L242.498 35.4888L242.498 35.488L241.573 35.1075ZM241.573 34.8591L242.498 34.4777C242.432 34.3196 242.336 34.173 242.212 34.0478L241.503 34.7531L240.794 35.4584C240.73 35.3936 240.681 35.3186 240.649 35.2404L241.573 34.8591ZM241.503 34.7531L242.212 34.0478L240.918 32.7475L240.209 33.4528L239.5 34.1581L240.794 35.4584L241.503 34.7531ZM240.209 33.4528L240.918 32.7475C240.401 32.2274 239.56 32.2274 239.043 32.7475L239.752 33.4528L240.461 34.1581C240.196 34.4239 239.765 34.4239 239.5 34.1581L240.209 33.4528ZM239.752 33.4528L239.043 32.7475C238.528 33.2647 238.528 34.1006 239.043 34.6179L239.752 33.9126L240.461 33.2073C240.722 33.4702 240.722 33.8951 240.461 34.1581L239.752 33.4528ZM239.752 33.9126L239.043 34.6179L239.785 35.3634L240.494 34.6581L241.203 33.9528L240.461 33.2073L239.752 33.9126ZM240.494 34.6581V33.6581H236.422V34.6581V35.6581H240.494V34.6581ZM236.422 34.6581V33.6581C235.978 33.6581 235.353 33.7853 234.812 34.1829C234.222 34.6161 233.805 35.3212 233.805 36.2839H234.805H235.805C235.805 36.1032 235.841 35.9984 235.871 35.9399C235.9 35.8809 235.941 35.8346 235.996 35.7947C236.123 35.7008 236.307 35.6581 236.422 35.6581V34.6581ZM234.805 36.2839H233.805V36.9342H234.805H235.805V36.2839H234.805ZM234.805 36.9342H233.805C233.805 37.6615 234.392 38.2594 235.128 38.2594V37.2594V36.2594C235.506 36.2594 235.805 36.5666 235.805 36.9342H234.805ZM235.128 37.2594V38.2594C235.864 38.2594 236.452 37.6615 236.452 36.9342H235.452H234.452C234.452 36.5666 234.75 36.2594 235.128 36.2594V37.2594ZM235.452 36.9342H236.452V36.2839H235.452H234.452V36.9342H235.452ZM235.452 36.2839H236.452C236.452 36.2428 236.456 36.2241 236.457 36.2222C236.457 36.2212 236.456 36.2236 236.454 36.2287C236.452 36.2338 236.449 36.2407 236.444 36.2488C236.44 36.2568 236.434 36.2651 236.428 36.2732C236.421 36.2813 236.414 36.2886 236.408 36.2949C236.395 36.3076 236.383 36.3148 236.378 36.318C236.373 36.321 236.372 36.3208 236.377 36.319C236.382 36.3172 236.39 36.315 236.4 36.3129C236.41 36.3109 236.42 36.3096 236.427 36.3089C236.435 36.3082 236.438 36.3083 236.434 36.3083L236.422 35.3084L236.41 34.3085C236.267 34.3102 235.819 34.3305 235.376 34.5873C234.852 34.8906 234.452 35.4595 234.452 36.2839H235.452ZM236.422 35.3084V36.3084H240.494V35.3084V34.3084H236.422V35.3084ZM240.494 35.3084L239.785 34.6031L239.043 35.3487L239.752 36.054L240.461 36.7593L241.203 36.0137L240.494 35.3084ZM239.752 36.054L239.043 35.3487C238.528 35.8659 238.528 36.7018 239.043 37.2191L239.752 36.5138L240.461 35.8085C240.722 36.0714 240.722 36.4963 240.461 36.7593L239.752 36.054ZM239.752 36.5138L239.043 37.2191C239.3 37.4778 239.641 37.609 239.981 37.609V36.609V35.609C240.154 35.609 240.33 35.6766 240.461 35.8085L239.752 36.5138ZM239.981 36.609V37.609C240.32 37.609 240.661 37.4777 240.918 37.2191L240.209 36.5138L239.5 35.8085C239.632 35.6766 239.807 35.609 239.981 35.609V36.609ZM240.209 36.5138L240.918 37.2191L242.212 35.9188L241.503 35.2135L240.794 34.5082L239.5 35.8085L240.209 36.5138ZM241.503 35.2135L242.208 35.9227C242.338 35.7934 242.434 35.6437 242.498 35.4888L241.573 35.1075L240.649 34.7261C240.68 34.6512 240.728 34.5738 240.798 34.5042L241.503 35.2135ZM241.573 35.1075L242.498 35.488C242.631 35.165 242.631 34.8015 242.498 34.478L241.573 34.8591L240.649 35.2401C240.581 35.0753 240.581 34.8913 240.648 34.727L241.573 35.1075Z" fill="#040035" mask="url(#path-28-inside-6_25_77)"/>
<mask id="path-30-inside-7_25_77" fill="white">
<path d="M241.274 36.9336C241.095 36.9336 240.951 37.0789 240.951 37.2588V37.9091C240.951 38.827 240.141 38.8826 239.98 38.8845H235.909L236.65 38.1389C236.777 38.0118 236.777 37.8063 236.65 37.6791C236.524 37.552 236.32 37.552 236.193 37.6791L234.899 38.9794C234.869 39.0093 234.846 39.0454 234.829 39.0854C234.797 39.1648 234.797 39.2545 234.829 39.3338C234.846 39.3738 234.869 39.4099 234.899 39.4398L236.193 40.7401C236.256 40.8035 236.339 40.8354 236.422 40.8354C236.505 40.8354 236.587 40.8035 236.65 40.7401C236.777 40.613 236.777 40.4075 236.65 40.2803L235.909 39.5347H239.98C240.539 39.5347 241.598 39.1949 241.598 37.909V37.2588C241.598 37.0789 241.453 36.9336 241.274 36.9336Z"/>
</mask>
<path d="M239.98 38.8845V39.8846L239.992 39.8844L239.98 38.8845ZM235.909 38.8845L235.2 38.1792L233.503 39.8845H235.909V38.8845ZM236.193 37.6791L236.902 38.3844L236.193 37.6791ZM234.899 38.9794L235.604 39.6887L235.608 39.6847L234.899 38.9794ZM234.829 39.0854L233.905 38.7041L233.904 38.7048L234.829 39.0854ZM234.829 39.3338L233.905 39.7146L233.905 39.7152L234.829 39.3338ZM234.899 39.4398L235.608 38.7345L235.604 38.7306L234.899 39.4398ZM236.193 40.7401L236.902 40.0348L236.193 40.7401ZM236.65 40.2803L237.359 39.575L237.359 39.575L236.65 40.2803ZM235.909 39.5347V38.5347H233.503L235.2 40.24L235.909 39.5347ZM241.598 37.2588L240.598 37.2586V37.2588H241.598ZM241.274 36.9336V35.9336C240.538 35.9336 239.951 36.5315 239.951 37.2588H240.951H241.951C241.951 37.6264 241.652 37.9336 241.274 37.9336V36.9336ZM240.951 37.2588H239.951V37.9091H240.951H241.951V37.2588H240.951ZM240.951 37.9091H239.951C239.951 37.9501 239.946 37.9688 239.946 37.9707C239.945 37.9717 239.946 37.9693 239.948 37.9642C239.95 37.9591 239.953 37.9522 239.958 37.9441C239.963 37.9361 239.968 37.9278 239.975 37.9197C239.981 37.9116 239.988 37.9043 239.995 37.898C240.008 37.8853 240.019 37.8781 240.024 37.8749C240.03 37.8719 240.03 37.8721 240.025 37.8739C240.02 37.8757 240.012 37.878 240.002 37.88C239.992 37.8821 239.982 37.8833 239.975 37.884C239.968 37.8847 239.965 37.8846 239.968 37.8846L239.98 38.8845L239.992 39.8844C240.135 39.8827 240.583 39.8624 241.027 39.6056C241.55 39.3023 241.951 38.7334 241.951 37.9091H240.951ZM239.98 38.8845V37.8845H235.909V38.8845V39.8845H239.98V38.8845ZM235.909 38.8845L236.618 39.5898L237.359 38.8442L236.65 38.1389L235.942 37.4336L235.2 38.1792L235.909 38.8845ZM236.65 38.1389L237.359 38.8442C237.874 38.327 237.874 37.4911 237.359 36.9739L236.65 37.6791L235.942 38.3844C235.68 38.1215 235.68 37.6966 235.942 37.4336L236.65 38.1389ZM236.65 37.6791L237.359 36.9739C236.842 36.4538 236.002 36.4538 235.484 36.9739L236.193 37.6791L236.902 38.3844C236.638 38.6502 236.206 38.6502 235.942 38.3844L236.65 37.6791ZM236.193 37.6791L235.484 36.9739L234.19 38.2741L234.899 38.9794L235.608 39.6847L236.902 38.3844L236.193 37.6791ZM234.899 38.9794L234.194 38.2702C234.064 38.3996 233.969 38.5492 233.905 38.7041L234.829 39.0854L235.754 39.4668C235.723 39.5417 235.674 39.6191 235.604 39.6887L234.899 38.9794ZM234.829 39.0854L233.904 38.7048C233.771 39.0279 233.771 39.3913 233.905 39.7146L234.829 39.3338L235.754 38.9531C235.822 39.1177 235.822 39.3016 235.754 39.4661L234.829 39.0854ZM234.829 39.3338L233.905 39.7152C233.969 39.8701 234.064 40.0197 234.194 40.1491L234.899 39.4398L235.604 38.7306C235.674 38.8001 235.723 38.8776 235.754 38.9525L234.829 39.3338ZM234.899 39.4398L234.19 40.1451L235.484 41.4454L236.193 40.7401L236.902 40.0348L235.608 38.7345L234.899 39.4398ZM236.193 40.7401L235.484 41.4454C235.742 41.7041 236.082 41.8354 236.422 41.8354V40.8354V39.8354C236.596 39.8354 236.771 39.9029 236.902 40.0348L236.193 40.7401ZM236.422 40.8354V41.8354C236.761 41.8354 237.102 41.7041 237.359 41.4454L236.65 40.7401L235.942 40.0348C236.073 39.9029 236.248 39.8354 236.422 39.8354V40.8354ZM236.65 40.7401L237.359 41.4454C237.874 40.9282 237.874 40.0923 237.359 39.575L236.65 40.2803L235.942 40.9856C235.68 40.7227 235.68 40.2978 235.942 40.0348L236.65 40.7401ZM236.65 40.2803L237.359 39.575L236.618 38.8294L235.909 39.5347L235.2 40.24L235.942 40.9856L236.65 40.2803ZM235.909 39.5347V40.5347H239.98V39.5347V38.5347H235.909V39.5347ZM239.98 39.5347V40.5347C240.425 40.5347 241.05 40.4075 241.591 40.01C242.18 39.5768 242.598 38.8717 242.598 37.909H241.598H240.598C240.598 38.0897 240.561 38.1945 240.532 38.253C240.502 38.312 240.461 38.3583 240.407 38.3982C240.279 38.4921 240.095 38.5347 239.98 38.5347V39.5347ZM241.598 37.909H242.598V37.2588H241.598H240.598V37.909H241.598ZM241.598 37.2588L242.598 37.2589C242.598 36.5315 242.01 35.9336 241.274 35.9336V36.9336V37.9336C240.896 37.9336 240.598 37.6264 240.598 37.2586L241.598 37.2588Z" fill="#040035" mask="url(#path-30-inside-7_25_77)"/>
<g filter="url(#filter4_dd_25_77)">
<rect x="152.055" y="-50" width="39.1208" height="28.5883" rx="5" fill="white"/>
</g>
</g>
<defs>
<filter id="filter0_dd_25_77" x="-6.4" y="125.014" width="77.0344" height="68.5305" filterUnits="userSpaceOnUse" color-interpolation-filters="sRGB">
<feFlood flood-opacity="0" result="BackgroundImageFix"/>
<feColorMatrix in="SourceAlpha" type="matrix" values="0 0 0 0 0 0 0 0 0 0 0 0 0 0 0 0 0 0 127 0" result="hardAlpha"/>
<feOffset dx="4" dy="4"/>
<feGaussianBlur stdDeviation="10.2"/>
<feComposite in2="hardAlpha" operator="out"/>
<feColorMatrix type="matrix" values="0 0 0 0 0 0 0 0 0 0 0 0 0 0 0 0 0 0 0.05 0"/>
<feBlend mode="normal" in2="BackgroundImageFix" result="effect1_dropShadow_25_77"/>
<feColorMatrix in="SourceAlpha" type="matrix" values="0 0 0 0 0 0 0 0 0 0 0 0 0 0 0 0 0 0 127 0" result="hardAlpha"/>
<feOffset dx="4" dy="4"/>
<feGaussianBlur stdDeviation="10.2"/>
<feComposite in2="hardAlpha" operator="out"/>
<feColorMatrix type="matrix" values="0 0 0 0 0 0 0 0 0 0 0 0 0 0 0 0 0 0 0.05 0"/>
<feBlend mode="normal" in2="effect1_dropShadow_25_77" result="effect2_dropShadow_25_77"/>
<feBlend mode="normal" in="SourceGraphic" in2="effect2_dropShadow_25_77" result="shape"/>
</filter>
<filter id="filter1_dd_25_77" x="-1.4" y="-62.4" width="77.5639" height="67.666" filterUnits="userSpaceOnUse" color-interpolation-filters="sRGB">
<feFlood flood-opacity="0" result="BackgroundImageFix"/>
<feColorMatrix in="SourceAlpha" type="matrix" values="0 0 0 0 0 0 0 0 0 0 0 0 0 0 0 0 0 0 127 0" result="hardAlpha"/>
<feOffset dx="4" dy="4"/>
<feGaussianBlur stdDeviation="10.2"/>
<feComposite in2="hardAlpha" operator="out"/>
<feColorMatrix type="matrix" values="0 0 0 0 0 0 0 0 0 0 0 0 0 0 0 0 0 0 0.05 0"/>
<feBlend mode="normal" in2="BackgroundImageFix" result="effect1_dropShadow_25_77"/>
<feColorMatrix in="SourceAlpha" type="matrix" values="0 0 0 0 0 0 0 0 0 0 0 0 0 0 0 0 0 0 127 0" result="hardAlpha"/>
<feOffset dx="4" dy="4"/>
<feGaussianBlur stdDeviation="10.2"/>
<feComposite in2="hardAlpha" operator="out"/>
<feColorMatrix type="matrix" values="0 0 0 0 0 0 0 0 0 0 0 0 0 0 0 0 0 0 0.05 0"/>
<feBlend mode="normal" in2="effect1_dropShadow_25_77" result="effect2_dropShadow_25_77"/>
<feBlend mode="normal" in="SourceGraphic" in2="effect2_dropShadow_25_77" result="shape"/>
</filter>
<filter id="filter2_dd_25_77" x="167.3" y="105.6" width="76.3898" height="68.0371" filterUnits="userSpaceOnUse" color-interpolation-filters="sRGB">
<feFlood flood-opacity="0" result="BackgroundImageFix"/>
<feColorMatrix in="SourceAlpha" type="matrix" values="0 0 0 0 0 0 0 0 0 0 0 0 0 0 0 0 0 0 127 0" result="hardAlpha"/>
<feOffset dx="4" dy="4"/>
<feGaussianBlur stdDeviation="10.2"/>
<feComposite in2="hardAlpha" operator="out"/>
<feColorMatrix type="matrix" values="0 0 0 0 0 0 0 0 0 0 0 0 0 0 0 0 0 0 0.05 0"/>
<feBlend mode="normal" in2="BackgroundImageFix" result="effect1_dropShadow_25_77"/>
<feColorMatrix in="SourceAlpha" type="matrix" values="0 0 0 0 0 0 0 0 0 0 0 0 0 0 0 0 0 0 127 0" result="hardAlpha"/>
<feOffset dx="4" dy="4"/>
<feGaussianBlur stdDeviation="10.2"/>
<feComposite in2="hardAlpha" operator="out"/>
<feColorMatrix type="matrix" values="0 0 0 0 0 0 0 0 0 0 0 0 0 0 0 0 0 0 0.05 0"/>
<feBlend mode="normal" in2="effect1_dropShadow_25_77" result="effect2_dropShadow_25_77"/>
<feBlend mode="normal" in="SourceGraphic" in2="effect2_dropShadow_25_77" result="shape"/>
</filter>
<filter id="filter3_dd_25_77" x="203.303" y="4.60024" width="78.0969" height="69.4899" filterUnits="userSpaceOnUse" color-interpolation-filters="sRGB">
<feFlood flood-opacity="0" result="BackgroundImageFix"/>
<feColorMatrix in="SourceAlpha" type="matrix" values="0 0 0 0 0 0 0 0 0 0 0 0 0 0 0 0 0 0 127 0" result="hardAlpha"/>
<feOffset dx="4" dy="4"/>
<feGaussianBlur stdDeviation="10.2"/>
<feComposite in2="hardAlpha" operator="out"/>
<feColorMatrix type="matrix" values="0 0 0 0 0 0 0 0 0 0 0 0 0 0 0 0 0 0 0.05 0"/>
<feBlend mode="normal" in2="BackgroundImageFix" result="effect1_dropShadow_25_77"/>
<feColorMatrix in="SourceAlpha" type="matrix" values="0 0 0 0 0 0 0 0 0 0 0 0 0 0 0 0 0 0 127 0" result="hardAlpha"/>
<feOffset dx="4" dy="4"/>
<feGaussianBlur stdDeviation="10.2"/>
<feComposite in2="hardAlpha" operator="out"/>
<feColorMatrix type="matrix" values="0 0 0 0 0 0 0 0 0 0 0 0 0 0 0 0 0 0 0.05 0"/>
<feBlend mode="normal" in2="effect1_dropShadow_25_77" result="effect2_dropShadow_25_77"/>
<feBlend mode="normal" in="SourceGraphic" in2="effect2_dropShadow_25_77" result="shape"/>
</filter>
<filter id="filter4_dd_25_77" x="135.655" y="-66.4" width="79.9208" height="69.3884" filterUnits="userSpaceOnUse" color-interpolation-filters="sRGB">
<feFlood flood-opacity="0" result="BackgroundImageFix"/>
<feColorMatrix in="SourceAlpha" type="matrix" values="0 0 0 0 0 0 0 0 0 0 0 0 0 0 0 0 0 0 127 0" result="hardAlpha"/>
<feOffset dx="4" dy="4"/>
<feGaussianBlur stdDeviation="10.2"/>
<feComposite in2="hardAlpha" operator="out"/>
<feColorMatrix type="matrix" values="0 0 0 0 0 0 0 0 0 0 0 0 0 0 0 0 0 0 0.05 0"/>
<feBlend mode="normal" in2="BackgroundImageFix" result="effect1_dropShadow_25_77"/>
<feColorMatrix in="SourceAlpha" type="matrix" values="0 0 0 0 0 0 0 0 0 0 0 0 0 0 0 0 0 0 127 0" result="hardAlpha"/>
<feOffset dx="4" dy="4"/>
<feGaussianBlur stdDeviation="10.2"/>
<feComposite in2="hardAlpha" operator="out"/>
<feColorMatrix type="matrix" values="0 0 0 0 0 0 0 0 0 0 0 0 0 0 0 0 0 0 0.05 0"/>
<feBlend mode="normal" in2="effect1_dropShadow_25_77" result="effect2_dropShadow_25_77"/>
<feBlend mode="normal" in="SourceGraphic" in2="effect2_dropShadow_25_77" result="shape"/>
</filter>
<clipPath id="clip0_25_77">
<rect width="278" height="238" fill="white"/>
</clipPath>
</defs>
</svg>
