<svg width="10" height="11" viewBox="0 0 10 11" fill="none" xmlns="http://www.w3.org/2000/svg">
<path d="M8.15401 5.34624L0.302569 2.12919C0.233058 2.10073 0.153244 2.1175 0.101029 2.17147C0.0488315 2.22549 0.0348027 2.30586 0.0656461 2.37435L3.54572 10.1065C3.5771 10.1762 3.64847 10.2191 3.72478 10.2143C3.74127 10.2132 3.75726 10.21 3.7724 10.2048C3.82731 10.1861 3.87121 10.1419 3.88866 10.0845L4.42557 7.27535C4.49501 6.91199 4.7649 6.61966 5.12157 6.52146L8.14752 5.68842C8.21866 5.66239 8.2665 5.59532 8.26794 5.51956C8.26935 5.44381 8.22412 5.37497 8.15401 5.34624Z" fill="#040035"/>
</svg>
